<svg width="174" height="142" viewBox="0 0 174 142" fill="none" xmlns="http://www.w3.org/2000/svg">
<path d="M84.2076 0.215063C75.4313 0.215065 68.2757 7.35673 68.2757 16.1664C68.2757 24.9761 75.4313 32.1178 84.2076 32.1178C92.9839 32.1178 100.14 24.9761 100.14 16.1664C100.14 7.35672 92.9839 0.215061 84.2076 0.215063Z" fill="#152FBF"/>
<path d="M128.776 52.9923C128.776 44.1816 121.661 37.0392 112.884 37.0392L68.2754 37.0392L68.2754 68.9454L112.884 68.9454C121.661 68.9454 128.776 61.8029 128.776 52.9923Z" fill="#1CABE2"/>
<path d="M84.2747 97.2166C93.0737 97.2166 100.207 90.0565 100.207 81.2241L100.207 37.0391L68.3428 37.0391L68.3428 81.2241C68.3428 90.0565 75.4758 97.2166 84.2747 97.2166Z" fill="#4FD183"/>
<path d="M39.6397 52.9923C39.6397 61.8029 46.7551 68.9454 55.5323 68.9454L100.141 68.9454L100.141 37.0392L55.5323 37.0392C46.7551 37.0392 39.6397 44.1816 39.6397 52.9923Z" fill="#4FD183"/>
<path d="M68.3524 36.9913C68.3524 54.6111 82.6604 68.8948 100.213 68.8948L100.213 36.9913L68.3524 36.9913Z" fill="#8DD3FF"/>
<path d="M0.314758 134.591V114.54H4.56366V122.711H11.6973V114.54H16.003V134.591H11.6973V126.533H4.56366V134.591H0.314758Z" fill="#152FBF"/>
<path d="M21.2123 132.885C19.8481 131.559 19.166 129.849 19.166 127.756C19.166 125.662 19.8481 123.966 21.2123 122.668C22.5765 121.361 24.258 120.707 26.2569 120.707C28.2369 120.707 29.8901 121.375 31.2164 122.711C32.5521 124.037 33.22 125.757 33.22 127.869C33.22 128.239 33.2011 128.656 33.1632 129.12H23.2017C23.2964 129.859 23.6801 130.422 24.3528 130.811C25.0254 131.199 25.7596 131.393 26.5554 131.393C27.8722 131.393 28.8622 130.967 29.5253 130.114L32.4669 132.118C31.2353 133.956 29.1795 134.875 26.2996 134.875C26.2806 134.875 26.2664 134.875 26.2569 134.875C24.258 134.875 22.5765 134.212 21.2123 132.885ZM23.2586 126.59H29.1416C29.0469 125.832 28.7106 125.255 28.1327 124.857C27.5643 124.459 26.9485 124.26 26.2854 124.26C25.6317 124.26 25.0017 124.454 24.3954 124.842C23.7891 125.231 23.4101 125.813 23.2586 126.59Z" fill="#152FBF"/>
<path d="M37.3493 132.885C35.9567 131.578 35.2604 129.878 35.2604 127.784C35.2604 125.69 35.9567 123.99 37.3493 122.682C38.7514 121.366 40.3619 120.707 42.1808 120.707C42.825 120.707 43.5308 120.845 44.2982 121.119C45.0655 121.385 45.6813 121.849 46.1455 122.512V121.006H50.1528V134.591H46.1455V133.042C45.7571 133.62 45.1603 134.065 44.355 134.378C43.5497 134.69 42.825 134.847 42.1808 134.847C40.3524 134.847 38.7419 134.193 37.3493 132.885ZM40.4756 125.468C39.7935 126.074 39.4524 126.846 39.4524 127.784C39.4524 128.712 39.7935 129.484 40.4756 130.1C41.1671 130.707 41.9582 131.01 42.8487 131.01C43.7203 131.01 44.4876 130.716 45.1508 130.129C45.8139 129.532 46.1455 128.75 46.1455 127.784C46.1455 126.808 45.8139 126.027 45.1508 125.439C44.4876 124.842 43.7203 124.544 42.8487 124.544C41.9582 124.544 41.1671 124.852 40.4756 125.468Z" fill="#152FBF"/>
<path d="M53.9837 134.591V113.602H58.0336V134.591H53.9837Z" fill="#152FBF"/>
<path d="M60.6424 124.203V121.006H63.115V115.79H67.1365V121.006H69.9928V124.203H67.1365V134.591H63.115V124.203H60.6424Z" fill="#152FBF"/>
<path d="M72.5589 134.591V113.602H76.6089V123.123C76.8647 122.346 77.3763 121.749 78.1436 121.332C78.9204 120.916 79.6783 120.707 80.4173 120.707C82.1794 120.707 83.5246 121.271 84.453 122.398C85.3909 123.526 85.8598 125.127 85.8598 127.201V134.591H81.8099V127.343C81.8099 126.51 81.5588 125.851 81.0567 125.368C80.5546 124.885 79.972 124.643 79.3089 124.643C78.5699 124.643 77.9352 124.866 77.4047 125.311C76.8742 125.757 76.6089 126.453 76.6089 127.4V134.591H72.5589Z" fill="#152FBF"/>
<path d="M90.8639 134.591V114.54H98.8927C100.693 114.54 102.133 115.047 103.213 116.06C104.293 117.065 104.833 118.419 104.833 120.125C104.833 120.882 104.615 121.607 104.179 122.299C103.743 122.981 103.047 123.507 102.09 123.876C103.312 124.189 104.25 124.8 104.904 125.709C105.557 126.609 105.884 127.523 105.884 128.452C105.884 130.176 105.302 131.63 104.136 132.814C102.971 133.999 101.417 134.591 99.4753 134.591H90.8639ZM95.1412 130.839H99.248C99.9301 130.839 100.456 130.593 100.825 130.1C101.204 129.598 101.394 129.02 101.394 128.367C101.394 127.741 101.195 127.187 100.797 126.704C100.408 126.221 99.8638 125.979 99.1627 125.979H95.1412V130.839ZM95.1412 122.455H98.4806C99.0206 122.455 99.4659 122.261 99.8164 121.872C100.176 121.484 100.356 120.991 100.356 120.395C100.356 119.75 100.195 119.239 99.8732 118.86C99.5511 118.481 99.0775 118.291 98.4522 118.291H95.1412V122.455Z" fill="#152FBF"/>
<path d="M108.848 129.12V121.006H112.898V128.253C112.898 129.219 113.149 129.911 113.651 130.328C114.153 130.744 114.703 130.953 115.3 130.953C116.001 130.953 116.583 130.73 117.048 130.285C117.521 129.83 117.758 129.129 117.758 128.182V121.006H121.794V134.591H117.758V132.729C117.408 133.392 116.901 133.918 116.238 134.307C115.574 134.685 114.907 134.875 114.234 134.875C112.642 134.875 111.345 134.382 110.34 133.397C109.346 132.412 108.848 130.986 108.848 129.12Z" fill="#152FBF"/>
<path d="M124.843 127.841C124.843 125.728 125.487 124.013 126.776 122.697C128.064 121.37 129.613 120.707 131.423 120.707C132.294 120.707 133.09 120.882 133.81 121.233C134.539 121.584 135.07 122.057 135.401 122.654V113.602H139.423V134.591H135.401V132.9C135.07 133.525 134.539 134.013 133.81 134.363C133.09 134.704 132.294 134.875 131.423 134.875C129.623 134.875 128.074 134.221 126.776 132.914C125.487 131.607 124.843 129.916 124.843 127.841ZM129.035 127.756C129.035 128.741 129.338 129.537 129.945 130.143C130.56 130.74 131.304 131.038 132.176 131.038C133.047 131.038 133.786 130.73 134.393 130.114C135.008 129.489 135.316 128.703 135.316 127.756C135.316 126.77 135.008 125.984 134.393 125.397C133.786 124.809 133.047 124.516 132.176 124.516C131.304 124.516 130.56 124.819 129.945 125.425C129.338 126.022 129.035 126.799 129.035 127.756Z" fill="#152FBF"/>
<path d="M142.444 127.841C142.444 125.728 143.088 124.013 144.376 122.697C145.665 121.37 147.214 120.707 149.023 120.707C149.895 120.707 150.691 120.882 151.411 121.233C152.14 121.584 152.671 122.057 153.002 122.654V113.602H157.024V134.591H153.002V132.9C152.671 133.525 152.14 134.013 151.411 134.363C150.691 134.704 149.895 134.875 149.023 134.875C147.223 134.875 145.674 134.221 144.376 132.914C143.088 131.607 142.444 129.916 142.444 127.841ZM146.636 127.756C146.636 128.741 146.939 129.537 147.545 130.143C148.161 130.74 148.905 131.038 149.776 131.038C150.648 131.038 151.387 130.73 151.993 130.114C152.609 129.489 152.917 128.703 152.917 127.756C152.917 126.77 152.609 125.984 151.993 125.397C151.387 124.809 150.648 124.516 149.776 124.516C148.905 124.516 148.161 124.819 147.545 125.425C146.939 126.022 146.636 126.799 146.636 127.756Z" fill="#152FBF"/>
<path d="M159.05 121.006H163.356L166.354 128.708L169.381 121.006H173.687L165.302 141.255H161.025L164.293 133.198L159.05 121.006Z" fill="#152FBF"/>
</svg>
