<svg width="208" height="33" viewBox="0 0 208 33" fill="none" xmlns="http://www.w3.org/2000/svg">
<path d="M40.2737 26.6227V7.95078H44.2304V15.5598H50.8735V7.95078H54.8831V26.6227H50.8735V19.1195H44.2304V26.6227H40.2737Z" fill="#152FBF"/>
<path d="M59.7341 25.0347C58.4637 23.7996 57.8285 22.2073 57.8285 20.2576C57.8285 18.3079 58.4637 16.7287 59.7341 15.5201C61.0045 14.3027 62.5704 13.6939 64.4319 13.6939C66.2757 13.6939 67.8151 14.3159 69.0502 15.5598C70.2941 16.7949 70.9161 18.3961 70.9161 20.3634C70.9161 20.7075 70.8984 21.0957 70.8632 21.528H61.5867C61.675 22.2161 62.0323 22.741 62.6586 23.1027C63.285 23.4644 63.9687 23.6453 64.7098 23.6453C65.936 23.6453 66.8579 23.2483 67.4755 22.4543L70.2147 24.3201C69.0679 26.0316 67.1535 26.8874 64.4716 26.8874C64.4539 26.8874 64.4407 26.8874 64.4319 26.8874C62.5704 26.8874 61.0045 26.2698 59.7341 25.0347ZM61.6397 19.1725H67.1182C67.03 18.4667 66.7168 17.9285 66.1786 17.558C65.6493 17.1875 65.0759 17.0022 64.4583 17.0022C63.8496 17.0022 63.2629 17.1831 62.6983 17.5448C62.1337 17.9065 61.7808 18.449 61.6397 19.1725Z" fill="#152FBF"/>
<path d="M74.7614 25.0347C73.4645 23.8173 72.8161 22.2337 72.8161 20.284C72.8161 18.3344 73.4645 16.7508 74.7614 15.5334C76.0671 14.3071 77.5668 13.6939 79.2606 13.6939C79.8605 13.6939 80.5178 13.8219 81.2324 14.0777C81.947 14.3247 82.5204 14.757 82.9527 15.3746V13.9718H86.6844V26.6227H82.9527V25.1803C82.591 25.7184 82.0352 26.1331 81.2853 26.4242C80.5354 26.7153 79.8605 26.8609 79.2606 26.8609C77.558 26.8609 76.0582 26.2522 74.7614 25.0347ZM77.6727 18.127C77.0375 18.6917 76.7199 19.4107 76.7199 20.284C76.7199 21.1486 77.0375 21.8676 77.6727 22.441C78.3167 23.0056 79.0533 23.288 79.8826 23.288C80.6942 23.288 81.4088 23.0145 82.0264 22.4675C82.6439 21.9117 82.9527 21.1839 82.9527 20.284C82.9527 19.3754 82.6439 18.6475 82.0264 18.1006C81.4088 17.5448 80.6942 17.2669 79.8826 17.2669C79.0533 17.2669 78.3167 17.5536 77.6727 18.127Z" fill="#152FBF"/>
<path d="M90.2518 26.6227V7.07739H94.0232V26.6227H90.2518Z" fill="#152FBF"/>
<path d="M96.4526 16.9493V13.9718H98.7552V9.11529H102.5V13.9718H105.16V16.9493H102.5V26.6227H98.7552V16.9493H96.4526Z" fill="#152FBF"/>
<path d="M107.55 26.6227V7.07739H111.321V15.9436C111.559 15.2202 112.036 14.6644 112.75 14.2762C113.474 13.888 114.179 13.6939 114.868 13.6939C116.508 13.6939 117.761 14.2189 118.626 15.2687C119.499 16.3185 119.936 17.8094 119.936 19.7415V26.6227H116.164V19.8738C116.164 19.0975 115.931 18.4843 115.463 18.0344C114.995 17.5845 114.453 17.3595 113.835 17.3595C113.147 17.3595 112.556 17.5668 112.062 17.9815C111.568 18.3961 111.321 19.0445 111.321 19.9267V26.6227H107.55Z" fill="#152FBF"/>
<path d="M124.596 26.6227V7.95078H132.072C133.749 7.95078 135.09 8.42276 136.095 9.36672C137.101 10.3019 137.604 11.5634 137.604 13.1514C137.604 13.8572 137.401 14.532 136.995 15.1761C136.589 15.8112 135.941 16.3009 135.05 16.6449C136.188 16.9361 137.061 17.5051 137.67 18.352C138.279 19.1901 138.583 20.0414 138.583 20.906C138.583 22.5116 138.041 23.8658 136.955 24.9686C135.87 26.0713 134.424 26.6227 132.615 26.6227H124.596ZM128.579 23.1292H132.403C133.038 23.1292 133.528 22.8998 133.872 22.441C134.225 21.9735 134.401 21.4353 134.401 20.8266C134.401 20.2443 134.216 19.7282 133.846 19.2783C133.484 18.8284 132.977 18.6034 132.324 18.6034H128.579V23.1292ZM128.579 15.3216H131.689C132.192 15.3216 132.606 15.1408 132.933 14.7791C133.268 14.4174 133.435 13.9586 133.435 13.4028C133.435 12.8029 133.285 12.3265 132.986 11.9736C132.686 11.6208 132.244 11.4443 131.662 11.4443H128.579V15.3216Z" fill="#152FBF"/>
<path d="M141.343 21.528V13.9718H145.115V20.7207C145.115 21.6206 145.349 22.2646 145.816 22.6528C146.284 23.0409 146.795 23.235 147.351 23.235C148.004 23.235 148.547 23.0277 148.979 22.6131C149.42 22.1896 149.64 21.5368 149.64 20.6546V13.9718H153.399V26.6227H149.64V24.8892C149.314 25.5067 148.842 25.9963 148.225 26.358C147.607 26.7109 146.985 26.8874 146.359 26.8874C144.877 26.8874 143.668 26.4286 142.733 25.5111C141.806 24.5936 141.343 23.2659 141.343 21.528Z" fill="#152FBF"/>
<path d="M156.238 20.337C156.238 18.3696 156.838 16.7729 158.038 15.5466C159.238 14.3115 160.68 13.6939 162.365 13.6939C163.177 13.6939 163.918 13.8572 164.588 14.1836C165.268 14.51 165.762 14.9511 166.07 15.5069V7.07739H169.815V26.6227H166.07V25.048C165.762 25.6302 165.268 26.0846 164.588 26.411C163.918 26.7286 163.177 26.8874 162.365 26.8874C160.689 26.8874 159.247 26.2786 158.038 25.0612C156.838 23.8437 156.238 22.269 156.238 20.337ZM160.142 20.2576C160.142 21.1751 160.424 21.9161 160.989 22.4807C161.562 23.0365 162.255 23.3144 163.067 23.3144C163.878 23.3144 164.566 23.0277 165.131 22.4543C165.704 21.872 165.991 21.1398 165.991 20.2576C165.991 19.3401 165.704 18.6078 165.131 18.0609C164.566 17.5139 163.878 17.2404 163.067 17.2404C162.255 17.2404 161.562 17.5227 160.989 18.0873C160.424 18.6431 160.142 19.3665 160.142 20.2576Z" fill="#152FBF"/>
<path d="M172.629 20.337C172.629 18.3696 173.228 16.7729 174.428 15.5466C175.628 14.3115 177.07 13.6939 178.755 13.6939C179.567 13.6939 180.308 13.8572 180.979 14.1836C181.658 14.51 182.152 14.9511 182.461 15.5069V7.07739H186.206V26.6227H182.461V25.048C182.152 25.6302 181.658 26.0846 180.979 26.411C180.308 26.7286 179.567 26.8874 178.755 26.8874C177.079 26.8874 175.637 26.2786 174.428 25.0612C173.228 23.8437 172.629 22.269 172.629 20.337ZM176.532 20.2576C176.532 21.1751 176.815 21.9161 177.379 22.4807C177.953 23.0365 178.645 23.3144 179.457 23.3144C180.268 23.3144 180.957 23.0277 181.521 22.4543C182.095 21.872 182.381 21.1398 182.381 20.2576C182.381 19.3401 182.095 18.6078 181.521 18.0609C180.957 17.5139 180.268 17.2404 179.457 17.2404C178.645 17.2404 177.953 17.5227 177.379 18.0873C176.815 18.6431 176.532 19.3665 176.532 20.2576Z" fill="#152FBF"/>
<path d="M188.092 13.9718H192.102L194.894 21.1442L197.713 13.9718H201.723L193.915 32.829H189.932L192.976 25.3259L188.092 13.9718Z" fill="#152FBF"/>
<path d="M14.7267 1.56689C12.0027 1.5669 9.78168 3.76681 9.78168 6.48054C9.78168 9.19428 12.0027 11.3942 14.7268 11.3942C17.4508 11.3942 19.6718 9.19427 19.6718 6.48054C19.6718 3.76681 17.4508 1.56689 14.7267 1.56689Z" fill="#152FBF"/>
<path d="M28.5604 17.8246C28.5604 15.1106 26.3519 12.9104 23.6275 12.9104L9.78168 12.9104L9.78168 22.7388L23.6275 22.7388C26.3519 22.7388 28.5604 20.5386 28.5604 17.8246Z" fill="#1CABE2"/>
<path d="M14.7476 31.4472C17.4787 31.4472 19.6927 29.2416 19.6927 26.5209L19.6927 12.9102L9.80256 12.9102L9.80256 26.5209C9.80256 29.2416 12.0165 31.4472 14.7476 31.4472Z" fill="#4FD183"/>
<path d="M0.893433 17.8244C0.893433 20.5384 3.10197 22.7385 5.82633 22.7385L19.6722 22.7385L19.6722 12.9102L5.82633 12.9102C3.10197 12.9102 0.893432 15.1103 0.893433 17.8244Z" fill="#4FD183"/>
<path d="M9.80536 12.8955C9.80536 18.3231 14.2464 22.723 19.6947 22.723L19.6947 12.8955L9.80536 12.8955Z" fill="#8DD3FF"/>
</svg>
